<?xml version="1.0" standalone="yes"?>

<svg version="1.1" viewBox="0.0 0.0 960.0 720.0" fill="none" stroke="none" stroke-linecap="square" stroke-miterlimit="10" xmlns="http://www.w3.org/2000/svg" xmlns:xlink="http://www.w3.org/1999/xlink"><clipPath id="p.0"><path d="m0 0l960.0 0l0 720.0l-960.0 0l0 -720.0z" clip-rule="nonzero"></path></clipPath><g clip-path="url(#p.0)"><path fill="#000000" fill-opacity="0.0" d="m0 0l960.0 0l0 720.0l-960.0 0z" fill-rule="nonzero"></path><path fill="#000000" fill-opacity="0.0" d="m181.74689 83.692055l2.9606323 523.96844" fill-rule="nonzero"></path><path stroke="#000000" stroke-width="2.0" stroke-linejoin="round" stroke-linecap="butt" d="m181.78561 90.54612l2.9219055 517.11444" fill-rule="evenodd"></path><path fill="#000000" stroke="#000000" stroke-width="2.0" stroke-linecap="butt" d="m181.78561 90.54611l2.2618408 2.2364273l-2.2840576 -6.166733l-2.214203 6.1921463z" fill-rule="evenodd"></path><path fill="#000000" fill-opacity="0.0" d="m113.70322 543.36646l669.48035 -3.307129" fill-rule="nonzero"></path><path stroke="#000000" stroke-width="2.0" stroke-linejoin="round" stroke-linecap="butt" d="m113.70322 543.36646l662.6262 -3.2732544" fill-rule="evenodd"></path><path fill="#000000" stroke="#000000" stroke-width="2.0" stroke-linecap="butt" d="m776.32947 540.0932l-2.238037 2.260254l6.168335 -2.279663l-6.1905518 -2.218628z" fill-rule="evenodd"></path><path fill="#000000" fill-opacity="0.0" d="m387.61322 80.020996l0 462.89764" fill-rule="nonzero"></path><path stroke="#000000" stroke-width="1.0" stroke-linejoin="round" stroke-linecap="butt" stroke-dasharray="1.0,3.0" d="m387.61322 80.020996l0 462.89764" fill-rule="nonzero"></path><path fill="#000000" fill-opacity="0.0" d="m551.44324 80.020996l0 462.89764" fill-rule="nonzero"></path><path stroke="#000000" stroke-width="1.0" stroke-linejoin="round" stroke-linecap="butt" stroke-dasharray="1.0,3.0" d="m551.44324 80.020996l0 462.89764" fill-rule="nonzero"></path><path fill="#000000" fill-opacity="0.0" d="m185.83957 543.6627l202.43848 -0.7175293l163.40744 -279.6218l179.2832 -4.3134766" fill-rule="nonzero"></path><path stroke="#ff0000" stroke-width="4.0" stroke-linejoin="round" stroke-linecap="butt" d="m185.83957 543.6627l202.43848 -0.7175293l163.40744 -279.6218l179.2832 -4.3134766" fill-rule="nonzero"></path><path fill="#000000" fill-opacity="0.0" d="m550.72144 263.93246l-367.14957 0.78738403" fill-rule="nonzero"></path><path stroke="#000000" stroke-width="1.0" stroke-linejoin="round" stroke-linecap="butt" stroke-dasharray="1.0,3.0" d="m550.72144 263.93246l-367.14957 0.78738403" fill-rule="nonzero"></path><path fill="#000000" fill-opacity="0.0" d="m127.16929 311.6012l55.590553 0l0 55.212585l-55.590553 0z" fill-rule="nonzero"></path><path fill="#000000" d="m154.4818 337.7887l-5.734375 9.890625q0.328125 2.21875 1.609375 2.21875q0.625 0 1.203125 -0.46875q0.578125 -0.484375 0.84375 -1.125l0.953125 0q-1.671875 4.71875 -3.859375 4.71875q-1.71875 0 -1.71875 -3.09375q0 -0.53125 0.078125 -1.03125l-0.078125 0q-3.1875 4.125 -6.328125 4.125q-2.546875 0 -3.953125 -1.4375q-1.390625 -1.453125 -1.390625 -3.96875q0 -2.34375 1.203125 -4.71875q1.203125 -2.375 3.328125 -3.953125q2.125 -1.59375 4.5 -1.59375q2.90625 0 2.90625 3.53125q0 0.328125 -0.03125 0.734375l0.0625 0l1.890625 -3.828125l4.515625 0zm-7.484375 3.390625q0 -2.859375 -1.71875 -2.859375q-2.109375 0 -3.6875 3.40625q-1.5625 3.390625 -1.5625 7.3125q0 3.03125 1.625 3.03125q1.1875 0 2.25 -1.328125q1.078125 -1.34375 1.71875 -3.1875q0.640625 -1.84375 1.0 -3.578125q0.375 -1.734375 0.375 -2.796875z" fill-rule="nonzero"></path><path fill="#000000" fill-opacity="0.0" d="m740.76 557.1176l485.95276 0l0 55.212585l-485.95276 0z" fill-rule="nonzero"></path><path fill="#000000" d="m760.6819 586.5926l2.328125 0.296875q-0.375 2.421875 -1.953125 3.78125q-1.578125 1.359375 -3.875 1.359375q-2.875 0 -4.625 -1.875q-1.734375 -1.875 -1.734375 -5.390625q0 -2.265625 0.75 -3.953125q0.75 -1.703125 2.28125 -2.546875q1.53125 -0.859375 3.34375 -0.859375q2.28125 0 3.71875 1.15625q1.453125 1.140625 1.875 3.265625l-2.3125 0.359375q-0.328125 -1.40625 -1.171875 -2.109375q-0.828125 -0.71875 -2.015625 -0.71875q-1.796875 0 -2.921875 1.28125q-1.109375 1.28125 -1.109375 4.0625q0 2.828125 1.078125 4.109375q1.078125 1.265625 2.8125 1.265625q1.40625 0 2.34375 -0.84375q0.9375 -0.859375 1.1875 -2.640625z" fill-rule="nonzero"></path><path fill="#000000" fill-opacity="0.0" d="m146.27573 495.75952l55.590546 0l0 55.212585l-55.590546 0z" fill-rule="nonzero"></path><path fill="#000000" d="m156.40073 520.82825q0 -3.421875 0.703125 -5.515625q0.703125 -2.09375 2.09375 -3.21875q1.390625 -1.1405945 3.5 -1.1405945q1.5625 0 2.734375 0.625q1.171875 0.6249695 1.9375 1.8124695q0.765625 1.171875 1.1875 2.875q0.4375 1.6875 0.4375 4.5625q0 3.40625 -0.703125 5.5q-0.6875 2.078125 -2.078125 3.21875q-1.390625 1.140625 -3.515625 1.140625q-2.796875 0 -4.390625 -2.0q-1.90625 -2.421875 -1.90625 -7.859375zm2.4375 0q0 4.765625 1.109375 6.34375q1.109375 1.5625 2.75 1.5625q1.640625 0 2.75 -1.578125q1.109375 -1.578125 1.109375 -6.328125q0 -4.765625 -1.109375 -6.328125q-1.109375 -1.578125 -2.78125 -1.578125q-1.625 0 -2.609375 1.375q-1.21875 1.765625 -1.21875 6.53125z" fill-rule="nonzero"></path><path fill="#000000" fill-opacity="0.0" d="m181.38216 541.9051l55.590546 0l0 55.212585l-55.590546 0z" fill-rule="nonzero"></path><path fill="#000000" d="m191.50716 566.9739q0 -3.421875 0.703125 -5.515625q0.703125 -2.09375 2.09375 -3.21875q1.390625 -1.140625 3.5 -1.140625q1.5625 0 2.734375 0.625q1.171875 0.625 1.9375 1.8125q0.765625 1.171875 1.1875 2.875q0.4375 1.6875 0.4375 4.5625q0 3.40625 -0.703125 5.5q-0.6875 2.078125 -2.078125 3.21875q-1.390625 1.140625 -3.515625 1.140625q-2.796875 0 -4.390625 -2.0q-1.90625 -2.421875 -1.90625 -7.859375zm2.4375 0q0 4.765625 1.109375 6.34375q1.109375 1.5625 2.75 1.5625q1.640625 0 2.75 -1.578125q1.109375 -1.578125 1.109375 -6.328125q0 -4.765625 -1.109375 -6.328125q-1.109375 -1.578125 -2.78125 -1.578125q-1.625 0 -2.609375 1.375q-1.21875 1.765625 -1.21875 6.53125z" fill-rule="nonzero"></path><path fill="#000000" fill-opacity="0.0" d="m358.30328 541.9055l71.811005 0l0 55.212585l-71.811005 0z" fill-rule="nonzero"></path><path fill="#000000" d="m368.42828 566.97424q0 -3.421875 0.703125 -5.515625q0.703125 -2.09375 2.09375 -3.21875q1.390625 -1.140625 3.5 -1.140625q1.5625 0 2.734375 0.625q1.171875 0.625 1.9375 1.8125q0.765625 1.171875 1.1875 2.875q0.4375 1.6875 0.4375 4.5625q0 3.40625 -0.703125 5.5q-0.6875 2.078125 -2.078125 3.21875q-1.390625 1.140625 -3.515625 1.140625q-2.796875 0 -4.390625 -2.0q-1.90625 -2.421875 -1.90625 -7.859375zm2.4375 0q0 4.765625 1.109375 6.34375q1.109375 1.5625 2.75 1.5625q1.640625 0 2.75 -1.578125q1.109375 -1.578125 1.109375 -6.328125q0 -4.765625 -1.109375 -6.328125q-1.109375 -1.578125 -2.78125 -1.578125q-1.625 0 -2.609375 1.375q-1.21875 1.765625 -1.21875 6.53125zm13.715546 9.53125l0 -2.703125l2.703125 0l0 2.703125l-2.703125 0zm13.687225 0l0 -4.625l-8.390625 0l0 -2.171875l8.8125 -12.53125l1.9375 0l0 12.53125l2.625 0l0 2.171875l-2.625 0l0 4.625l-2.359375 0zm0 -6.796875l0 -8.71875l-6.0625 8.71875l6.0625 0z" fill-rule="nonzero"></path><path fill="#000000" fill-opacity="0.0" d="m524.44617 541.9055l68.0 0l0 55.212585l-68.0 0z" fill-rule="nonzero"></path><path fill="#000000" d="m534.57117 566.97424q0 -3.421875 0.703125 -5.515625q0.703125 -2.09375 2.09375 -3.21875q1.390625 -1.140625 3.5 -1.140625q1.5625 0 2.734375 0.625q1.171875 0.625 1.9375 1.8125q0.765625 1.171875 1.1875 2.875q0.4375 1.6875 0.4375 4.5625q0 3.40625 -0.703125 5.5q-0.6875 2.078125 -2.078125 3.21875q-1.390625 1.140625 -3.515625 1.140625q-2.796875 0 -4.390625 -2.0q-1.90625 -2.421875 -1.90625 -7.859375zm2.4375 0q0 4.765625 1.109375 6.34375q1.109375 1.5625 2.75 1.5625q1.640625 0 2.75 -1.578125q1.109375 -1.578125 1.109375 -6.328125q0 -4.765625 -1.109375 -6.328125q-1.109375 -1.578125 -2.78125 -1.578125q-1.625 0 -2.609375 1.375q-1.21875 1.765625 -1.21875 6.53125zm13.715576 9.53125l0 -2.703125l2.703125 0l0 2.703125l-2.703125 0zm6.23407 -16.796875l0 -2.28125l12.515625 0l0 1.84375q-1.859375 1.96875 -3.671875 5.234375q-1.8125 3.25 -2.796875 6.6875q-0.703125 2.421875 -0.90625 5.3125l-2.4375 0q0.03125 -2.28125 0.890625 -5.5q0.859375 -3.234375 2.453125 -6.234375q1.609375 -3.0 3.421875 -5.0625l-9.46875 0z" fill-rule="nonzero"></path><path fill="#000000" fill-opacity="0.0" d="m122.87143 124.7404l90.67717 0l0 55.2126l-90.67717 0z" fill-rule="nonzero"></path><path fill="#000000" d="m141.93393 159.34041l-2.375 0l0 -15.125q-0.859375 0.828125 -2.25 1.640625q-1.390625 0.8125 -2.5 1.21875l0 -2.296875q2.0 -0.921875 3.484375 -2.25q1.484375 -1.34375 2.109375 -2.59375l1.53125 0l0 19.40625zm7.215561 0l0 -2.703125l2.703125 0l0 2.703125l-2.703125 0zm6.077835 -9.53125q0 -3.421875 0.703125 -5.515625q0.703125 -2.09375 2.09375 -3.21875q1.390625 -1.140625 3.5 -1.140625q1.5625 0 2.734375 0.625q1.171875 0.625 1.9375 1.8125q0.765625 1.171875 1.1875 2.875q0.4375 1.6875 0.4375 4.5625q0 3.40625 -0.703125 5.5q-0.6875 2.078125 -2.078125 3.21875q-1.390625 1.140625 -3.515625 1.140625q-2.796875 0 -4.390625 -2.0q-1.90625 -2.421875 -1.90625 -7.859375zm2.4375 0q0 4.765625 1.109375 6.34375q1.109375 1.5625 2.75 1.5625q1.640625 0 2.75 -1.578125q1.109375 -1.578125 1.109375 -6.328125q0 -4.765625 -1.109375 -6.328125q-1.109375 -1.578125 -2.78125 -1.578125q-1.625 0 -2.609375 1.375q-1.21875 1.765625 -1.21875 6.53125z" fill-rule="nonzero"></path><path fill="#000000" fill-opacity="0.0" d="m345.21216 483.04434l90.677155 0l0 55.212616l-90.677155 0z" fill-rule="nonzero"></path><path fill="#0000ff" d="m359.8059 523.1862q-1.78125 0 -3.0 -1.09375q-1.21875 -1.09375 -1.6875 -2.5625q-0.453125 -1.46875 -0.453125 -3.203125q0 -2.078125 0.734375 -4.640625q0.734375 -2.578125 2.0 -4.984375q1.265625 -2.40625 3.296875 -4.015625q2.03125 -1.625 4.296875 -1.625q1.375 0 2.34375 0.59375q0.984375 0.59375 1.5 1.640625q0.515625 1.03125 0.734375 2.15625q0.21875 1.125 0.21875 2.40625q0 1.65625 -0.453125 3.671875q-0.4375 2.015625 -1.328125 4.0625q-0.875 2.046875 -2.046875 3.75q-1.15625 1.6875 -2.78125 2.765625q-1.609375 1.078125 -3.375 1.078125zm6.1875 -18.828125q0 -2.359375 -1.3125 -2.359375q-1.578125 0 -2.8125 2.0q-1.21875 2.0 -1.828125 4.5l-0.640625 2.625l5.890625 0q0.703125 -3.46875 0.703125 -6.765625zm-0.9375 7.875l-5.890625 0q-0.703125 3.84375 -0.703125 6.984375q0 3.03125 1.640625 3.03125q2.84375 0 4.40625 -7.421875l0.546875 -2.59375z" fill-rule="nonzero"></path><path fill="#0000ff" d="m376.07468 534.76434l2.375 -11.34375q-1.546875 1.203125 -4.328125 1.9375l0.34375 -1.6875q1.390625 -0.5625 2.734375 -1.453125q1.34375 -0.890625 2.03125 -1.546875q0.40625 -0.421875 0.78125 -1.0l1.0625 0l-3.140625 15.09375l-1.859375 0z" fill-rule="nonzero"></path><path fill="#000000" fill-opacity="0.0" d="m549.0422 483.04434l90.677124 0l0 55.212616l-90.677124 0z" fill-rule="nonzero"></path><path fill="#0000ff" d="m563.6359 523.1862q-1.78125 0 -3.0 -1.09375q-1.21875 -1.09375 -1.6875 -2.5625q-0.453125 -1.46875 -0.453125 -3.203125q0 -2.078125 0.734375 -4.640625q0.734375 -2.578125 2.0 -4.984375q1.265625 -2.40625 3.296875 -4.015625q2.03125 -1.625 4.296875 -1.625q1.375 0 2.34375 0.59375q0.984375 0.59375 1.5 1.640625q0.515625 1.03125 0.734375 2.15625q0.21875 1.125 0.21875 2.40625q0 1.65625 -0.453125 3.671875q-0.4375 2.015625 -1.328125 4.0625q-0.875 2.046875 -2.046875 3.75q-1.15625 1.6875 -2.78125 2.765625q-1.609375 1.078125 -3.375 1.078125zm6.1875 -18.828125q0 -2.359375 -1.3125 -2.359375q-1.578125 0 -2.8125 2.0q-1.21875 2.0 -1.828125 4.5l-0.640625 2.625l5.890625 0q0.703125 -3.46875 0.703125 -6.765625zm-0.9375 7.875l-5.890625 0q-0.703125 3.84375 -0.703125 6.984375q0 3.03125 1.640625 3.03125q2.84375 0 4.40625 -7.421875l0.546875 -2.59375z" fill-rule="nonzero"></path><path fill="#0000ff" d="m576.07654 534.76434q0.28125 -1.34375 0.78125 -2.25q0.515625 -0.90625 1.359375 -1.71875q0.84375 -0.8125 3.234375 -2.734375q1.453125 -1.15625 2.0 -1.71875q0.765625 -0.796875 1.109375 -1.5625q0.234375 -0.53125 0.234375 -1.140625q0 -1.03125 -0.734375 -1.75q-0.734375 -0.734375 -1.796875 -0.734375q-1.046875 0 -1.84375 0.734375q-0.796875 0.734375 -1.125 2.359375l-1.8125 -0.265625q0.265625 -2.0 1.546875 -3.15625q1.28125 -1.15625 3.203125 -1.15625q1.28125 0 2.3125 0.53125q1.046875 0.53125 1.5625 1.5q0.53125 0.96875 0.53125 1.984375q0 1.5 -1.0625 2.890625q-0.65625 0.859375 -3.859375 3.390625q-1.375 1.078125 -2.046875 1.78125q-0.671875 0.703125 -1.0 1.3125l6.71875 0l-0.359375 1.703125l-8.953125 0z" fill-rule="nonzero"></path><path fill="#000000" fill-opacity="0.0" d="m181.38216 204.92085l90.67717 0l0 55.2126l-90.67717 0z" fill-rule="nonzero"></path><path fill="#0000ff" d="m195.9759 245.06273q-1.78125 0 -3.0 -1.09375q-1.21875 -1.09375 -1.6875 -2.5625q-0.453125 -1.46875 -0.453125 -3.203125q0 -2.078125 0.734375 -4.640625q0.734375 -2.578125 2.0 -4.984375q1.265625 -2.40625 3.296875 -4.015625q2.03125 -1.625 4.296875 -1.625q1.375 0 2.34375 0.59375q0.984375 0.59375 1.5 1.640625q0.515625 1.03125 0.734375 2.15625q0.21875 1.125 0.21875 2.40625q0 1.65625 -0.453125 3.671875q-0.4375 2.015625 -1.328125 4.0625q-0.875 2.046875 -2.046875 3.75q-1.15625 1.6875 -2.78125 2.765625q-1.609375 1.078125 -3.375 1.078125zm6.1875 -18.828125q0 -2.359375 -1.3125 -2.359375q-1.578125 0 -2.8125 2.0q-1.21875 2.0 -1.828125 4.5l-0.640625 2.625l5.890625 0q0.703125 -3.46875 0.703125 -6.765625zm-0.9375 7.875l-5.890625 0q-0.703125 3.84375 -0.703125 6.984375q0 3.03125 1.640625 3.03125q2.84375 0 4.40625 -7.421875l0.546875 -2.59375z" fill-rule="nonzero"></path><path fill="#0000ff" d="m208.33844 252.70335l1.796875 -0.21875q0.203125 1.578125 0.90625 2.265625q0.703125 0.671875 1.84375 0.671875q1.375 0 2.375 -0.984375q1.0 -0.984375 1.0 -2.25q0 -1.109375 -0.75 -1.828125q-0.75 -0.734375 -2.015625 -0.734375q-0.140625 0 -0.59375 0.046875l0.328125 -1.546875q0.265625 0.03125 0.5 0.03125q1.59375 0 2.453125 -0.765625q0.859375 -0.78125 0.859375 -1.90625q0 -1.03125 -0.703125 -1.734375q-0.703125 -0.71875 -1.71875 -0.71875q-1.0 0 -1.796875 0.734375q-0.796875 0.71875 -1.015625 2.03125l-1.828125 -0.359375q0.453125 -1.859375 1.734375 -2.875q1.28125 -1.015625 3.03125 -1.015625q1.84375 0 2.984375 1.125q1.15625 1.109375 1.15625 2.734375q0 1.203125 -0.625 2.09375q-0.625 0.875 -1.859375 1.453125q0.875 0.53125 1.3125 1.265625q0.4375 0.734375 0.4375 1.6875q0 2.03125 -1.515625 3.515625q-1.5 1.4687347 -3.609375 1.4687347q-2.046875 0 -3.296875 -1.1406097q-1.25 -1.140625 -1.390625 -3.046875z" fill-rule="nonzero"></path><path fill="#000000" d="m548.2441 259.0094l6.3936768 0l0 8.251984l-6.3936768 0z" fill-rule="nonzero"></path><path stroke="#000000" stroke-width="1.0" stroke-linejoin="round" stroke-linecap="butt" d="m548.2441 259.0094l6.3936768 0l0 8.251984l-6.3936768 0z" fill-rule="nonzero"></path><path fill="#000000" d="m384.41367 537.5727l6.3937073 0l0 8.251953l-6.3937073 0z" fill-rule="nonzero"></path><path stroke="#000000" stroke-width="1.0" stroke-linejoin="round" stroke-linecap="butt" d="m384.41367 537.5727l6.3937073 0l0 8.251953l-6.3937073 0z" fill-rule="nonzero"></path><path fill="#000000" d="m180.03201 540.0427l6.393692 0l0 8.251953l-6.393692 0z" fill-rule="nonzero"></path><path stroke="#000000" stroke-width="1.0" stroke-linejoin="round" stroke-linecap="butt" d="m180.03201 540.0427l6.393692 0l0 8.251953l-6.393692 0z" fill-rule="nonzero"></path></g></svg>

