<?xml version="1.0" standalone="yes"?>

<svg version="1.1" viewBox="0.0 0.0 642.6509186351706 443.8083989501312" fill="none" stroke="none" stroke-linecap="square" stroke-miterlimit="10" xmlns="http://www.w3.org/2000/svg" xmlns:xlink="http://www.w3.org/1999/xlink"><clipPath id="p.0"><path d="m0 0l642.65094 0l0 443.8084l-642.65094 0l0 -443.8084z" clip-rule="nonzero"></path></clipPath><g clip-path="url(#p.0)"><path fill="#ffffff" d="m0 0l642.65094 0l0 443.8084l-642.65094 0z" fill-rule="evenodd"></path><path fill="#f0f9ff" d="m333.34647 67.53543l-276.7874 0l0 325.5433l276.7874 0z" fill-rule="evenodd"></path><path fill="#fcf4eb" d="m332.1391 67.55905l276.7874 0l0 325.5433l-276.7874 0z" fill-rule="evenodd"></path><path fill="#000000" fill-opacity="0.0" d="m25.223097 393.71127l587.937 0" fill-rule="evenodd"></path><path stroke="#000000" stroke-width="3.0" stroke-linejoin="round" stroke-linecap="butt" d="m43.2231 393.71127l551.937 0" fill-rule="evenodd"></path><path fill="#000000" stroke="#000000" stroke-width="3.0" stroke-linecap="butt" d="m43.223095 388.7561l-13.61429 4.9551697l13.61429 4.9552z" fill-rule="evenodd"></path><path fill="#000000" stroke="#000000" stroke-width="3.0" stroke-linecap="butt" d="m595.1601 398.66647l13.614319 -4.9552l-13.614319 -4.9551697z" fill-rule="evenodd"></path><path fill="#000000" fill-opacity="0.0" d="m332.1391 190.50806c17.11554 -42.77185 52.992737 0.20187378 75.873566 25.939087c11.656311 13.11145 19.549744 38.92935 30.125397 56.061188c15.773285 25.551605 35.833282 33.930023 53.558136 51.875c10.223114 10.350037 18.656708 29.474396 29.381927 36.81552c13.051697 8.933563 27.845276 11.331482 40.91205 2.510437c4.0444946 -2.7302856 4.8858643 -15.819702 8.182434 -21.756073" fill-rule="evenodd"></path><path stroke="#ff0000" stroke-width="3.0" stroke-linejoin="round" stroke-linecap="butt" d="m332.1391 190.50806c17.11554 -42.77185 52.992737 0.20187378 75.873566 25.939087c11.656311 13.11145 19.549744 38.92935 30.125397 56.061188c15.773285 25.551605 35.833282 33.930023 53.558136 51.875c10.223114 10.350037 18.656708 29.474396 29.381927 36.81552c13.051697 8.933563 27.845276 11.331482 40.91205 2.510437c4.0444946 -2.7302856 4.8858643 -15.819702 8.182434 -21.756073" fill-rule="evenodd"></path><path fill="#000000" fill-opacity="0.0" d="m332.1391 209.24136c12.692566 -8.852783 27.437805 -8.122177 41.123413 -12.429916c20.154114 -6.3437805 38.982727 -26.791275 59.52951 -24.855331c13.405243 1.2630768 25.54596 13.045563 38.773224 16.569473c5.0731506 1.3515472 10.183075 -2.365982 15.274597 -3.5491486c6.7294617 -1.563797 13.719208 4.5983124 20.3656 2.3661041c11.312866 -3.7994843 22.13678 -11.504089 33.68219 -13.020325c8.975098 -1.1786652 18.38092 3.25029 27.023926 -0.59039307c3.4389648 -1.5281982 5.4401855 -8.338699 9.006958 -8.8785095c7.5947266 -1.1494141 16.2182 -0.7741852 22.325073 -7.693207" fill-rule="evenodd"></path><path stroke="#0000ff" stroke-width="3.0" stroke-linejoin="round" stroke-linecap="butt" d="m332.1391 209.24136c12.692566 -8.852783 27.437805 -8.122177 41.123413 -12.429916c20.154114 -6.3437805 38.982727 -26.791275 59.52951 -24.855331c13.405243 1.2630768 25.54596 13.045563 38.773224 16.569473c5.0731506 1.3515472 10.183075 -2.365982 15.274597 -3.5491486c6.7294617 -1.563797 13.719208 4.5983124 20.3656 2.3661041c11.312866 -3.7994843 22.13678 -11.504089 33.68219 -13.020325c8.975098 -1.1786652 18.38092 3.25029 27.023926 -0.59039307c3.4389648 -1.5281982 5.4401855 -8.338699 9.006958 -8.8785095c7.5947266 -1.1494141 16.2182 -0.7741852 22.325073 -7.693207" fill-rule="evenodd"></path><path fill="#000000" fill-opacity="0.0" d="m332.1391 323.68967c27.473358 4.2358093 55.783936 23.919312 82.48355 11.207031c22.982086 -10.942261 41.808075 -42.37274 60.53839 -69.34653c5.290863 -7.619507 7.910431 -20.496674 13.24231 -28.017609c25.341217 -35.745255 49.608856 -78.02635 65.07779 -129.58768" fill-rule="evenodd"></path><path stroke="#38761d" stroke-width="3.0" stroke-linejoin="round" stroke-linecap="butt" d="m332.1391 323.68967c27.473358 4.2358093 55.783936 23.919312 82.48355 11.207031c22.982086 -10.942261 41.808075 -42.37274 60.53839 -69.34653c5.290863 -7.619507 7.910431 -20.496674 13.24231 -28.017609c25.341217 -35.745255 49.608856 -78.02635 65.07779 -129.58768" fill-rule="evenodd"></path><path fill="#000000" fill-opacity="0.0" d="m332.1391 57.755905l0 338.01575" fill-rule="evenodd"></path><path stroke="#000000" stroke-width="2.0" stroke-linejoin="round" stroke-linecap="butt" stroke-dasharray="8.0,6.0" d="m332.1391 57.755905l0 338.01575" fill-rule="evenodd"></path><path fill="#000000" fill-opacity="0.0" d="m492.1391 57.755905l0 338.01575" fill-rule="evenodd"></path><path stroke="#38761d" stroke-width="1.0" stroke-linejoin="round" stroke-linecap="butt" stroke-dasharray="4.0,3.0" d="m492.1391 57.755905l0 338.01575" fill-rule="evenodd"></path><path fill="#000000" fill-opacity="0.0" d="m156.13911 57.755905l0 338.01575" fill-rule="evenodd"></path><path stroke="#38761d" stroke-width="1.0" stroke-linejoin="round" stroke-linecap="butt" stroke-dasharray="4.0,3.0" d="m156.13911 57.755905l0 338.01575" fill-rule="evenodd"></path><path fill="#000000" fill-opacity="0.0" d="m318.11285 386.33597l23.055115 0l0 41.88974l-23.055115 0z" fill-rule="evenodd"></path><path fill="#000000" d="m331.30035 407.22845l-1.9375 2.1875l-2.578125 0l3.59375 -3.984375l-1.96875 -3.796875l2.21875 0l1.140625 2.21875l1.96875 -2.21875l2.5625 0l-3.609375 4.03125l1.953125 3.75l-2.234375 0l-1.109375 -2.1875z" fill-rule="nonzero"></path><path fill="#000000" fill-opacity="0.0" d="m462.399 386.33597l62.04724 0l0 41.88974l-62.04724 0z" fill-rule="evenodd"></path><path fill="#000000" d="m475.5865 407.22845l-1.9375 2.1875l-2.578125 0l3.59375 -3.984375l-1.96875 -3.796875l2.21875 0l1.140625 2.21875l1.96875 -2.21875l2.5625 0l-3.609375 4.03125l1.953125 3.75l-2.234375 0l-1.109375 -2.1875zm7.979248 0.640625l0 -2.796875l-2.8125 0l0 -1.921875l2.8125 0l0 -2.78125l1.875 0l0 2.78125l2.828125 0l0 1.921875l-2.828125 0l0 2.796875l-1.875 0z" fill-rule="nonzero"></path><path fill="#000000" d="m497.23413 409.79095l-2.25 -0.0625l-8.84375 0.046875l9.4375 -11.09375l2.25 0l-0.59375 11.109375zm-1.859375 -8.140625q-0.15625 0.625 -4.34375 5.6875l3.59375 0q0.453125 -5.671875 0.75 -5.6875z" fill-rule="nonzero"></path><path fill="#000000" d="m502.2336 407.22845l-1.9375 2.1875l-2.578125 0l3.59375 -3.984375l-1.96875 -3.796875l2.21875 0l1.140625 2.21875l1.96875 -2.21875l2.5625 0l-3.609375 4.03125l1.953125 3.75l-2.234375 0l-1.109375 -2.1875z" fill-rule="nonzero"></path><path fill="#000000" fill-opacity="0.0" d="m127.00006 386.33597l65.19685 0l0 41.88974l-65.19685 0z" fill-rule="evenodd"></path><path fill="#000000" d="m140.18756 407.22845l-1.9375 2.1875l-2.578125 0l3.59375 -3.984375l-1.96875 -3.796875l2.21875 0l1.140625 2.21875l1.96875 -2.21875l2.5625 0l-3.609375 4.03125l1.953125 3.75l-2.234375 0l-1.109375 -2.1875zm4.963608 -2.703125l4.078125 0l-0.421875 2.03125l-4.078125 0l0.421875 -2.03125z" fill-rule="nonzero"></path><path fill="#000000" d="m158.15681 409.79095l-2.25 -0.0625l-8.84375 0.046875l9.4375 -11.09375l2.25 0l-0.59375 11.109375zm-1.859375 -8.140625q-0.15625 0.625 -4.34375 5.6875l3.59375 0q0.453125 -5.671875 0.75 -5.6875z" fill-rule="nonzero"></path><path fill="#000000" d="m163.1563 407.22845l-1.9375 2.1875l-2.578125 0l3.59375 -3.984375l-1.96875 -3.796875l2.21875 0l1.140625 2.21875l1.96875 -2.21875l2.5625 0l-3.609375 4.03125l1.953125 3.75l-2.234375 0l-1.109375 -2.1875z" fill-rule="nonzero"></path><path fill="#000000" fill-opacity="0.0" d="m95.31233 172.53693c17.115547 -42.77185 52.99272 0.20187378 75.873566 25.939087c11.656296 13.11145 19.549728 38.92935 30.125381 56.061188c15.773285 25.551605 35.833282 33.930023 53.558136 51.875c10.223114 10.350037 18.656738 29.474426 29.381927 36.81552c13.051697 8.933563 27.845276 11.331482 40.91208 2.510437c4.044464 -2.7302856 4.8858337 -15.819702 8.182404 -21.756073" fill-rule="evenodd"></path><path stroke="#38761d" stroke-width="3.0" stroke-linejoin="round" stroke-linecap="butt" d="m95.31233 172.53693c17.115547 -42.77185 52.99272 0.20187378 75.873566 25.939087c11.656296 13.11145 19.549728 38.92935 30.125381 56.061188c15.773285 25.551605 35.833282 33.930023 53.558136 51.875c10.223114 10.350037 18.656738 29.474426 29.381927 36.81552c13.051697 8.933563 27.845276 11.331482 40.91208 2.510437c4.044464 -2.7302856 4.8858337 -15.819702 8.182404 -21.756073" fill-rule="evenodd"></path><path fill="#000000" fill-opacity="0.0" d="m126.398994 107.81564c25.538963 -1.9884033 51.85621 -11.228348 76.67593 -5.2608795c21.363907 5.136589 38.86438 19.890877 56.27588 32.55307c4.9183655 3.5767975 7.353485 9.621674 12.309937 13.152191c23.556915 16.779755 46.115906 36.62761 60.495697 60.831833" fill-rule="evenodd"></path><path stroke="#0000ff" stroke-width="3.0" stroke-linejoin="round" stroke-linecap="butt" d="m126.398994 107.81564c25.538963 -1.9884033 51.85621 -11.228348 76.67593 -5.2608795c21.363907 5.136589 38.86438 19.890877 56.27588 32.55307c4.9183655 3.5767975 7.353485 9.621674 12.309937 13.152191c23.556915 16.779755 46.115906 36.62761 60.495697 60.831833" fill-rule="evenodd"></path><path fill="#000000" fill-opacity="0.0" d="m332.1391 189.87921c-14.170593 -1.2060394 -14.8246765 2.0110626 -28.341187 -2.4120789c-20.682648 -6.768173 -40.815674 -31.888565 -60.902893 -23.51706c-13.30159 5.5435333 -13.424042 25.594818 -21.708664 37.38582c-12.755829 18.154587 -23.371613 37.80124 -36.78215 55.477707c-5.8643646 7.7297974 -16.282944 11.0911255 -22.312347 18.692902c-10.06749 12.692963 -15.382904 30.724487 -29.545929 38.590546" fill-rule="evenodd"></path><path stroke="#ff0000" stroke-width="3.0" stroke-linejoin="round" stroke-linecap="butt" d="m332.1391 189.87921c-14.170593 -1.2060394 -14.8246765 2.0110626 -28.341187 -2.4120789c-20.682648 -6.768173 -40.815674 -31.888565 -60.902893 -23.51706c-13.30159 5.5435333 -13.424042 25.594818 -21.708664 37.38582c-12.755829 18.154587 -23.371613 37.80124 -36.78215 55.477707c-5.8643646 7.7297974 -16.282944 11.0911255 -22.312347 18.692902c-10.06749 12.692963 -15.382904 30.724487 -29.545929 38.590546" fill-rule="evenodd"></path><path fill="#000000" fill-opacity="0.0" d="m148.7736 97.24414l0 0c0 -1.3771133 1.1163635 -2.4934845 2.4934845 -2.4934845l9.973648 0l0 0c0.6613159 0 1.2955475 0.26270294 1.7631683 0.7303238c0.46762085 0.46762085 0.7303314 1.1018524 0.7303314 1.7631607l0 216.9028c0 1.3771057 -1.1163788 2.4934692 -2.4934998 2.4934692l-9.973648 0c-1.377121 0 -2.4934845 -1.1163635 -2.4934845 -2.4934692z" fill-rule="evenodd"></path><path stroke="#000000" stroke-width="2.0" stroke-linejoin="round" stroke-linecap="butt" d="m148.7736 97.24414l0 0c0 -1.3771133 1.1163635 -2.4934845 2.4934845 -2.4934845l9.973648 0l0 0c0.6613159 0 1.2955475 0.26270294 1.7631683 0.7303238c0.46762085 0.46762085 0.7303314 1.1018524 0.7303314 1.7631607l0 216.9028c0 1.3771057 -1.1163788 2.4934692 -2.4934998 2.4934692l-9.973648 0c-1.377121 0 -2.4934845 -1.1163635 -2.4934845 -2.4934692z" fill-rule="evenodd"></path><path fill="#000000" fill-opacity="0.0" d="m55.1916 423.67978l1.4803162 -381.07086" fill-rule="evenodd"></path><path stroke="#000000" stroke-width="3.0" stroke-linejoin="round" stroke-linecap="butt" d="m55.261524 405.6799l1.3404694 -345.0711" fill-rule="evenodd"></path><path fill="#000000" stroke="#000000" stroke-width="3.0" stroke-linecap="butt" d="m50.306362 405.66068l4.902275 13.633453l5.008045 -13.59494z" fill-rule="evenodd"></path><path fill="#000000" stroke="#000000" stroke-width="3.0" stroke-linecap="butt" d="m61.55715 60.628036l-4.9022713 -13.633438l-5.008045 13.59494z" fill-rule="evenodd"></path><path fill="#000000" fill-opacity="0.0" d="m10.446195 312.12335l0 -190.51968l40.535435 0l0 190.51968z" fill-rule="evenodd"></path><path fill="#000000" d="m37.61619 295.73273q0 2.890625 -1.84375 4.828125q-1.84375 1.921875 -4.734375 1.921875q-2.890625 0 -4.71875 -1.90625q-1.828125 -1.921875 -1.828125 -4.84375q0 -3.453125 2.828125 -5.25l1.21875 2.25q-0.671875 0.4375 -1.15625 1.203125q-0.5 0.765625 -0.5 1.796875q0 1.734375 1.1875 2.859375q1.1875 1.109375 2.96875 1.109375q1.84375 0 3.0 -1.140625q1.15625 -1.140625 1.15625 -2.828125q0 -0.859375 -0.296875 -1.578125q-0.3125 -0.734375 -0.671875 -1.125l-1.515625 0l0 3.34375l-2.359375 0l0 -6.03125l4.875 0q2.390625 2.140625 2.390625 5.390625zm-0.015625 -11.494995q0 2.125 -1.375 3.484375q-1.375 1.359375 -3.453125 1.359375q-2.09375 0 -3.453125 -1.359375q-1.359375 -1.359375 -1.359375 -3.484375q0 -2.125 1.359375 -3.484375q1.359375 -1.375 3.453125 -1.375q2.109375 0 3.46875 1.375q1.359375 1.359375 1.359375 3.484375zm-2.15625 0q0 -1.046875 -0.75 -1.703125q-0.75 -0.65625 -1.921875 -0.65625q-1.140625 0 -1.90625 0.65625q-0.765625 0.65625 -0.765625 1.703125q0 1.0 0.734375 1.671875q0.734375 0.671875 1.9375 0.671875q1.21875 0 1.953125 -0.671875q0.71875 -0.671875 0.71875 -1.671875zm1.921875 -11.95871l-0.953125 0q1.1875 1.0 1.1875 2.90625q0 1.328125 -0.84375 2.265625q-0.859375 0.921875 -2.203125 0.921875q-1.34375 0 -2.15625 -0.875q-0.8125 -0.890625 -0.8125 -2.3125q0 -1.984375 1.125 -2.90625l-1.234375 0q-0.703125 0 -1.109375 0.546875q-0.421875 0.546875 -0.421875 1.46875q0 1.515625 1.078125 2.671875l-1.625 0.90625q-1.4375 -1.671875 -1.4375 -4.0q0 -1.9375 0.90625 -2.96875q0.90625 -1.046875 2.578125 -1.046875l5.921875 0l0 2.421875zm-1.40625 1.9375q0 -1.328125 -0.796875 -1.9375l-1.140625 0q-0.796875 0.609375 -0.796875 1.9375q0 0.71875 0.359375 1.21875q0.359375 0.5 1.03125 0.5q0.640625 0 1.0 -0.5q0.34375 -0.5 0.34375 -1.21875zm1.40625 -6.5678406l-12.671875 0l0 -2.40625l12.671875 0l0 2.40625zm0.234375 -15.683533q0 2.9375 -1.875 4.84375q-1.875 1.90625 -4.6875 1.90625q-1.859375 0 -3.375 -0.875q-1.53125 -0.890625 -2.34375 -2.453125q-0.828125 -1.5625 -0.828125 -3.421875q0 -3.5 3.09375 -5.296875l1.140625 2.3125q-0.78125 0.40625 -1.3125 1.203125q-0.53125 0.796875 -0.53125 1.78125q0 1.734375 1.1875 2.859375q1.1875 1.109375 2.96875 1.109375q1.84375 0 3.0 -1.140625q1.15625 -1.140625 1.15625 -2.828125q0 -0.984375 -0.515625 -1.78125q-0.53125 -0.796875 -1.328125 -1.203125l1.125 -2.3125q3.125 1.796875 3.125 5.296875zm0 -10.879349q0 2.125 -1.375 3.484375q-1.375 1.359375 -3.453125 1.359375q-2.09375 0 -3.453125 -1.359375q-1.359375 -1.359375 -1.359375 -3.484375q0 -2.125 1.359375 -3.484375q1.359375 -1.375 3.453125 -1.375q2.109375 0 3.46875 1.375q1.359375 1.359375 1.359375 3.484375zm-2.15625 0q0 -1.046875 -0.75 -1.703125q-0.75 -0.65625 -1.921875 -0.65625q-1.140625 0 -1.90625 0.65625q-0.765625 0.65625 -0.765625 1.703125q0 1.0 0.734375 1.671875q0.734375 0.671875 1.9375 0.671875q1.21875 0 1.953125 -0.671875q0.71875 -0.671875 0.71875 -1.671875zm1.921875 -12.646194l-5.546875 0q-1.71875 0 -1.71875 1.6875q0 1.3125 1.09375 2.09375l6.171875 0l0 2.40625l-9.171875 0l0 -2.40625l1.1875 0q-0.53125 -0.4375 -0.96875 -1.25q-0.453125 -0.828125 -0.453125 -1.96875q0 -1.515625 0.796875 -2.234375q0.78125 -0.734375 2.125 -0.734375l6.484375 0l0 2.40625zm0 -5.1457214l-7.0625 0l0 1.53125l-2.109375 0l0 -1.53125l-0.5 0q-1.484375 0 -2.328125 -0.84375q-0.859375 -0.859375 -0.859375 -2.25q0 -1.609375 0.84375 -2.390625l1.4375 0.90625q-0.390625 0.390625 -0.390625 1.015625q0 0.484375 0.328125 0.8125q0.328125 0.328125 0.96875 0.328125l0.5 0l0 -1.859375l2.109375 0l0 1.859375l7.0625 0l0 2.421875zm-10.171875 -6.756851q0 0.578125 -0.40625 1.015625q-0.421875 0.421875 -1.03125 0.421875q-0.609375 0 -1.015625 -0.421875q-0.40625 -0.4375 -0.40625 -1.015625q0 -0.609375 0.40625 -1.03125q0.40625 -0.421875 1.015625 -0.421875q0.609375 0 1.03125 0.421875q0.40625 0.421875 0.40625 1.03125zm10.171875 1.1875l-9.171875 0l0 -2.40625l9.171875 0l0 2.40625zm0 -11.016907l-1.171875 0q1.40625 1.140625 1.40625 2.828125q0 1.828125 -1.3125 2.953125q-1.3125 1.109375 -3.5 1.109375q-2.171875 0 -3.5 -1.109375q-1.328125 -1.125 -1.328125 -2.953125q0 -1.734375 1.40625 -2.828125l-4.671875 0l0 -2.4375l12.671875 0l0 2.4375zm-1.921875 2.078125q0 -0.59375 -0.296875 -1.1875q-0.296875 -0.59375 -0.75 -0.890625l-3.25 0q-0.453125 0.296875 -0.75 0.890625q-0.296875 0.59375 -0.296875 1.1875q0 1.03125 0.75 1.6875q0.734375 0.640625 1.9375 0.640625q1.15625 0 1.90625 -0.625q0.75 -0.625 0.75 -1.703125zm2.15625 -11.026321q0 2.171875 -1.34375 3.546875q-1.34375 1.359375 -3.484375 1.359375q-2.0625 0 -3.4375 -1.359375q-1.375 -1.359375 -1.375 -3.390625q0 -2.03125 1.40625 -3.3125q1.390625 -1.28125 3.65625 -1.28125l0.53125 0l0 6.8125q0.875 -0.109375 1.5 -0.78125q0.625 -0.671875 0.625 -1.859375q0 -0.5625 -0.234375 -1.265625q-0.25 -0.703125 -0.6875 -1.1875l1.5625 -1.0625q0.625 0.6875 0.953125 1.703125q0.328125 1.0 0.328125 2.078125zm-5.6875 -2.109375q-0.90625 0.0625 -1.46875 0.6875q-0.5625 0.625 -0.5625 1.578125q0 0.953125 0.578125 1.5625q0.578125 0.609375 1.453125 0.703125l0 -4.53125zm5.453125 -10.082535l-5.546875 0q-1.71875 0 -1.71875 1.6875q0 1.3125 1.09375 2.09375l6.171875 0l0 2.40625l-9.171875 0l0 -2.40625l1.1875 0q-0.53125 -0.4375 -0.96875 -1.25q-0.453125 -0.828125 -0.453125 -1.96875q0 -1.515625 0.796875 -2.234375q0.78125 -0.734375 2.125 -0.734375l6.484375 0l0 2.40625zm0.234375 -8.880096q0 2.15625 -1.375 3.515625q-1.375 1.34375 -3.453125 1.34375q-2.078125 0 -3.4375 -1.34375q-1.375 -1.359375 -1.375 -3.515625q0 -1.40625 0.515625 -2.28125q0.515625 -0.890625 1.140625 -1.34375l1.484375 1.5625q-1.0 0.671875 -1.0 1.9375q0 1.109375 0.734375 1.8125q0.734375 0.6875 1.9375 0.6875q1.1875 0 1.9375 -0.6875q0.734375 -0.703125 0.734375 -1.8125q0 -1.234375 -0.984375 -1.9375l1.46875 -1.5625q0.640625 0.453125 1.15625 1.34375q0.515625 0.875 0.515625 2.28125zm0 -9.3563385q0 2.171875 -1.34375 3.546875q-1.34375 1.359375 -3.484375 1.359375q-2.0625 0 -3.4375 -1.359375q-1.375 -1.359375 -1.375 -3.390625q0 -2.03125 1.40625 -3.3125q1.390625 -1.28125 3.65625 -1.28125l0.53125 0l0 6.8125q0.875 -0.109375 1.5 -0.78125q0.625 -0.671875 0.625 -1.859375q0 -0.5625 -0.234375 -1.265625q-0.25 -0.703125 -0.6875 -1.1875l1.5625 -1.0625q0.625 0.6875 0.953125 1.703125q0.328125 1.0 0.328125 2.078125zm-5.6875 -2.109375q-0.90625 0.0625 -1.46875 0.6875q-0.5625 0.625 -0.5625 1.578125q0 0.953125 0.578125 1.5625q0.578125 0.609375 1.453125 0.703125l0 -4.53125zm5.6875 -7.19191q0 1.1875 -0.375 2.28125q-0.390625 1.09375 -1.0625 1.8125l-1.6875 -1.03125q0.515625 -0.5625 0.890625 -1.46875q0.359375 -0.90625 0.359375 -1.703125q0 -1.546875 -0.984375 -1.546875q-0.375 0 -0.5625 0.40625q-0.1875 0.40625 -0.328125 1.0l-0.265625 1.3125q-0.59375 2.734375 -2.734375 2.734375q-1.28125 0 -2.078125 -1.046875q-0.8125 -1.0625 -0.8125 -2.71875q0 -2.140625 1.25 -3.703125l1.65625 0.96875q-0.4375 0.421875 -0.75 1.140625q-0.3125 0.71875 -0.3125 1.578125q0 0.671875 0.265625 1.0625q0.265625 0.375 0.640625 0.375q0.34375 0 0.515625 -0.390625q0.171875 -0.40625 0.296875 -1.0q0.125 -0.609375 0.296875 -1.3125q0.15625 -0.703125 0.484375 -1.3125q0.3125 -0.609375 0.875 -1.0q0.546875 -0.40625 1.46875 -0.40625q1.328125 0 2.140625 1.078125q0.8125 1.078125 0.8125 2.890625z" fill-rule="nonzero"></path><path fill="#000000" fill-opacity="0.0" d="m263.98294 400.95538l151.87402 0l0 40.53543l-151.87402 0z" fill-rule="evenodd"></path><path fill="#000000" d="m279.2017 425.50287q-2.46875 0 -4.078125 -1.5625q-1.59375 -1.578125 -1.59375 -3.953125q0 -1.5625 0.734375 -2.84375q0.75 -1.28125 2.0625 -1.96875q1.3125 -0.703125 2.875 -0.703125q2.953125 0 4.46875 2.609375l-1.953125 0.953125q-0.328125 -0.65625 -1.0 -1.09375q-0.671875 -0.453125 -1.515625 -0.453125q-1.453125 0 -2.40625 1.0q-0.9375 1.0 -0.9375 2.5q0 1.546875 0.953125 2.53125q0.96875 0.96875 2.390625 0.96875q0.84375 0 1.515625 -0.4375q0.671875 -0.4375 1.0 -1.109375l1.953125 0.9375q-1.515625 2.625 -4.46875 2.625zm10.992004 -0.1875l0 -0.96875q-1.03125 1.15625 -2.71875 1.15625q-1.28125 0 -1.890625 -0.640625q-0.59375 -0.65625 -0.59375 -1.78125l0 -5.5l2.03125 0l0 4.6875q0 1.4375 1.421875 1.4375q1.03125 0 1.75 -0.890625l0 -5.234375l2.03125 0l0 7.734375l-2.03125 0zm4.060913 0l0 -7.734375l2.03125 0l0 1.0625q0.40625 -0.515625 1.0625 -0.875q0.671875 -0.375 1.390625 -0.375l0 1.984375l-0.5625 -0.046875q-0.53125 0 -1.09375 0.265625q-0.546875 0.25 -0.796875 0.609375l0 5.109375l-2.03125 0zm5.76001 0l0 -7.734375l2.03125 0l0 1.0625q0.40625 -0.515625 1.0625 -0.875q0.671875 -0.375 1.390625 -0.375l0 1.984375l-0.5625 -0.046875q-0.53125 0 -1.09375 0.265625q-0.546875 0.25 -0.796875 0.609375l0 5.109375l-2.03125 0zm9.38501 0.1875q-1.828125 0 -2.984375 -1.125q-1.140625 -1.125 -1.140625 -2.9375q0 -1.71875 1.140625 -2.875q1.140625 -1.171875 2.859375 -1.171875q1.703125 0 2.78125 1.1875q1.09375 1.171875 1.09375 3.078125l0 0.4375l-5.75 0q0.09375 0.734375 0.65625 1.265625q0.578125 0.53125 1.5625 0.53125q0.484375 0 1.078125 -0.203125q0.59375 -0.203125 0.984375 -0.5625l0.90625 1.3125q-0.578125 0.515625 -1.4375 0.796875q-0.84375 0.265625 -1.75 0.265625zm1.78125 -4.78125q-0.046875 -0.765625 -0.578125 -1.234375q-0.53125 -0.46875 -1.328125 -0.46875q-0.796875 0 -1.3125 0.484375q-0.515625 0.484375 -0.59375 1.21875l3.8125 0zm8.644897 4.59375l0 -4.671875q0 -1.4375 -1.421875 -1.4375q-1.09375 0 -1.75 0.90625l0 5.203125l-2.03125 0l0 -7.734375l2.03125 0l0 1.015625q0.359375 -0.453125 1.046875 -0.828125q0.6875 -0.375 1.65625 -0.375q1.28125 0 1.890625 0.671875q0.609375 0.65625 0.609375 1.796875l0 5.453125l-2.03125 0zm6.6390076 0.1875q-2.1875 0 -2.1875 -2.109375l0 -4.03125l-1.28125 0l0 -1.78125l1.28125 0l0 -2.109375l2.046875 0l0 2.109375l1.578125 0l0 1.78125l-1.578125 0l0 3.484375q0 0.375 0.1875 0.625q0.1875 0.234375 0.515625 0.234375q0.484375 0 0.703125 -0.234375l0.4375 1.546875q-0.53125 0.484375 -1.703125 0.484375zm11.332153 0q-1.484375 0 -2.375 -1.171875l0 3.921875l-2.03125 0l0 -10.671875l2.03125 0l0 0.984375q0.921875 -1.171875 2.375 -1.171875q1.53125 0 2.46875 1.078125q0.953125 1.078125 0.953125 2.96875q0 1.859375 -0.9375 2.96875q-0.9375 1.09375 -2.484375 1.09375zm-0.640625 -1.796875q0.875 0 1.40625 -0.625q0.546875 -0.625 0.546875 -1.640625q0 -1.0 -0.546875 -1.609375q-0.53125 -0.625 -1.40625 -0.625q-0.5 0 -1.0 0.265625q-0.484375 0.25 -0.734375 0.609375l0 2.734375q0.25 0.375 0.734375 0.640625q0.5 0.25 1.0 0.25zm9.140503 1.796875q-1.796875 0 -2.9375 -1.140625q-1.140625 -1.15625 -1.140625 -2.921875q0 -1.75 1.140625 -2.890625q1.140625 -1.15625 2.9375 -1.15625q1.796875 0 2.9375 1.15625q1.15625 1.140625 1.15625 2.890625q0 1.78125 -1.15625 2.921875q-1.140625 1.140625 -2.9375 1.140625zm0 -1.796875q0.875 0 1.421875 -0.625q0.5625 -0.640625 0.5625 -1.640625q0 -0.953125 -0.5625 -1.59375q-0.546875 -0.640625 -1.421875 -0.640625q-0.84375 0 -1.40625 0.625q-0.5625 0.609375 -0.5625 1.609375q0 1.03125 0.5625 1.65625q0.5625 0.609375 1.40625 0.609375zm8.387146 1.796875q-1.015625 0 -1.9375 -0.3125q-0.921875 -0.328125 -1.515625 -0.890625l0.875 -1.421875q0.46875 0.4375 1.234375 0.75q0.765625 0.3125 1.4375 0.3125q1.296875 0 1.296875 -0.828125q0 -0.328125 -0.34375 -0.484375q-0.34375 -0.15625 -0.84375 -0.265625l-1.109375 -0.234375q-2.296875 -0.5 -2.296875 -2.296875q0 -1.078125 0.890625 -1.75q0.890625 -0.6875 2.28125 -0.6875q1.796875 0 3.109375 1.0625l-0.8125 1.390625q-0.34375 -0.375 -0.953125 -0.640625q-0.609375 -0.265625 -1.328125 -0.265625q-0.5625 0 -0.890625 0.234375q-0.328125 0.21875 -0.328125 0.546875q0 0.28125 0.328125 0.421875q0.34375 0.140625 0.84375 0.25q0.515625 0.109375 1.109375 0.25q0.59375 0.125 1.109375 0.40625q0.515625 0.265625 0.84375 0.734375q0.34375 0.453125 0.34375 1.25q0 1.109375 -0.921875 1.796875q-0.90625 0.671875 -2.421875 0.671875zm5.850769 -8.75q-0.5 0 -0.859375 -0.34375q-0.359375 -0.359375 -0.359375 -0.875q0 -0.5 0.359375 -0.84375q0.359375 -0.34375 0.859375 -0.34375q0.515625 0 0.859375 0.34375q0.359375 0.34375 0.359375 0.84375q0 0.515625 -0.359375 0.875q-0.34375 0.34375 -0.859375 0.34375zm-1.0 8.5625l0 -7.734375l2.03125 0l0 7.734375l-2.03125 0zm6.626129 0.1875q-2.1875 0 -2.1875 -2.109375l0 -4.03125l-1.28125 0l0 -1.78125l1.28125 0l0 -2.109375l2.046875 0l0 2.109375l1.578125 0l0 1.78125l-1.578125 0l0 3.484375q0 0.375 0.1875 0.625q0.1875 0.234375 0.515625 0.234375q0.484375 0 0.703125 -0.234375l0.4375 1.546875q-0.53125 0.484375 -1.703125 0.484375zm3.829895 -8.75q-0.5 0 -0.859375 -0.34375q-0.359375 -0.359375 -0.359375 -0.875q0 -0.5 0.359375 -0.84375q0.359375 -0.34375 0.859375 -0.34375q0.515625 0 0.859375 0.34375q0.359375 0.34375 0.359375 0.84375q0 0.515625 -0.359375 0.875q-0.34375 0.34375 -0.859375 0.34375zm-1.0 8.5625l0 -7.734375l2.03125 0l0 7.734375l-2.03125 0zm7.626129 0.1875q-1.796875 0 -2.9375 -1.140625q-1.140625 -1.15625 -1.140625 -2.921875q0 -1.75 1.140625 -2.890625q1.140625 -1.15625 2.9375 -1.15625q1.796875 0 2.9375 1.15625q1.15625 1.140625 1.15625 2.890625q0 1.78125 -1.15625 2.921875q-1.140625 1.140625 -2.9375 1.140625zm0 -1.796875q0.875 0 1.421875 -0.625q0.5625 -0.640625 0.5625 -1.640625q0 -0.953125 -0.5625 -1.59375q-0.546875 -0.640625 -1.421875 -0.640625q-0.84375 0 -1.40625 0.625q-0.5625 0.609375 -0.5625 1.609375q0 1.03125 0.5625 1.65625q0.5625 0.609375 1.40625 0.609375zm10.809021 1.609375l0 -4.671875q0 -1.4375 -1.421875 -1.4375q-1.09375 0 -1.75 0.90625l0 5.203125l-2.03125 0l0 -7.734375l2.03125 0l0 1.015625q0.359375 -0.453125 1.046875 -0.828125q0.6875 -0.375 1.65625 -0.375q1.28125 0 1.890625 0.671875q0.609375 0.65625 0.609375 1.796875l0 5.453125l-2.03125 0z" fill-rule="nonzero"></path><path fill="#000000" fill-opacity="0.0" d="m415.85828 400.39075l199.59052 0l0 40.53543l-199.59052 0z" fill-rule="evenodd"></path><path fill="#000000" d="m425.92078 424.75073l0 -10.671875l7.546875 0l0 2.0l-5.28125 0l0 2.25l5.171875 0l0 2.0l-5.171875 0l0 4.421875l-2.265625 0zm12.667267 0.1875q-1.796875 0 -2.9375 -1.140625q-1.140625 -1.15625 -1.140625 -2.921875q0 -1.75 1.140625 -2.890625q1.140625 -1.15625 2.9375 -1.15625q1.796875 0 2.9375 1.15625q1.15625 1.140625 1.15625 2.890625q0 1.78125 -1.15625 2.921875q-1.140625 1.140625 -2.9375 1.140625zm0 -1.796875q0.875 0 1.421875 -0.625q0.5625 -0.640625 0.5625 -1.640625q0 -0.953125 -0.5625 -1.59375q-0.546875 -0.640625 -1.421875 -0.640625q-0.84375 0 -1.40625 0.625q-0.5625 0.609375 -0.5625 1.609375q0 1.03125 0.5625 1.65625q0.5625 0.609375 1.40625 0.609375zm5.605896 1.609375l0 -7.734375l2.03125 0l0 1.0625q0.40625 -0.515625 1.0625 -0.875q0.671875 -0.375 1.390625 -0.375l0 1.984375l-0.5625 -0.046875q-0.53125 0 -1.09375 0.265625q-0.546875 0.25 -0.796875 0.609375l0 5.109375l-2.03125 0zm12.54126 0l-1.640625 -5.265625l-1.625 5.265625l-2.171875 0l-2.359375 -7.734375l2.109375 0l1.4375 5.203125l1.703125 -5.203125l1.8125 0l1.6875 5.203125l1.4375 -5.203125l2.109375 0l-2.34375 7.734375l-2.15625 0zm10.147766 0l0 -0.796875q-0.84375 0.984375 -2.4375 0.984375q-1.125 0 -1.90625 -0.703125q-0.78125 -0.71875 -0.78125 -1.859375q0 -1.125 0.734375 -1.796875q0.75 -0.6875 1.953125 -0.6875q1.65625 0 2.4375 0.9375l0 -1.03125q0 -0.59375 -0.46875 -0.9375q-0.453125 -0.359375 -1.21875 -0.359375q-1.28125 0 -2.25 0.90625l-0.78125 -1.359375q1.421875 -1.21875 3.375 -1.21875q1.640625 0 2.515625 0.765625q0.875 0.75 0.875 2.171875l0 4.984375l-2.046875 0zm-1.625 -1.1875q1.125 0 1.625 -0.671875l0 -0.953125q-0.5 -0.671875 -1.625 -0.671875q-0.609375 0 -1.03125 0.3125q-0.421875 0.296875 -0.421875 0.859375q0 0.53125 0.421875 0.828125q0.421875 0.296875 1.03125 0.296875zm5.688019 1.1875l0 -7.734375l2.03125 0l0 1.0625q0.40625 -0.515625 1.0625 -0.875q0.671875 -0.375 1.390625 -0.375l0 1.984375l-0.5625 -0.046875q-0.53125 0 -1.09375 0.265625q-0.546875 0.25 -0.796875 0.609375l0 5.109375l-2.03125 0zm11.056885 0l0 -0.984375q-0.953125 1.171875 -2.375 1.171875q-1.53125 0 -2.484375 -1.09375q-0.9375 -1.109375 -0.9375 -2.953125q0 -1.828125 0.9375 -2.9375q0.953125 -1.125 2.484375 -1.125q1.453125 0 2.375 1.1875l0 -3.9375l2.0625 0l0 10.671875l-2.0625 0zm-1.75 -1.609375q0.515625 0 1.0 -0.25q0.5 -0.25 0.75 -0.640625l0 -2.734375q-0.25 -0.375 -0.75 -0.625q-0.484375 -0.25 -1.0 -0.25q-0.859375 0 -1.40625 0.625q-0.546875 0.625 -0.546875 1.625q0 0.984375 0.515625 1.625q0.53125 0.625 1.4375 0.625zm14.331421 1.796875q-1.484375 0 -2.375 -1.171875l0 3.921875l-2.03125 0l0 -10.671875l2.03125 0l0 0.984375q0.921875 -1.171875 2.375 -1.171875q1.53125 0 2.46875 1.078125q0.953125 1.078125 0.953125 2.96875q0 1.859375 -0.9375 2.96875q-0.9375 1.09375 -2.484375 1.09375zm-0.640625 -1.796875q0.875 0 1.40625 -0.625q0.546875 -0.625 0.546875 -1.640625q0 -1.0 -0.546875 -1.609375q-0.53125 -0.625 -1.40625 -0.625q-0.5 0 -1.0 0.265625q-0.484375 0.25 -0.734375 0.609375l0 2.734375q0.25 0.375 0.734375 0.640625q0.5 0.25 1.0 0.25zm5.562378 1.609375l0 -7.734375l2.03125 0l0 1.0625q0.40625 -0.515625 1.0625 -0.875q0.671875 -0.375 1.390625 -0.375l0 1.984375l-0.5625 -0.046875q-0.53125 0 -1.09375 0.265625q-0.546875 0.25 -0.796875 0.609375l0 5.109375l-2.03125 0zm9.338135 0.1875q-1.796875 0 -2.9375 -1.140625q-1.140625 -1.15625 -1.140625 -2.921875q0 -1.75 1.140625 -2.890625q1.140625 -1.15625 2.9375 -1.15625q1.796875 0 2.9375 1.15625q1.15625 1.140625 1.15625 2.890625q0 1.78125 -1.15625 2.921875q-1.140625 1.140625 -2.9375 1.140625zm0 -1.796875q0.875 0 1.421875 -0.625q0.5625 -0.640625 0.5625 -1.640625q0 -0.953125 -0.5625 -1.59375q-0.546875 -0.640625 -1.421875 -0.640625q-0.84375 0 -1.40625 0.625q-0.5625 0.609375 -0.5625 1.609375q0 1.03125 0.5625 1.65625q0.5625 0.609375 1.40625 0.609375zm6.605896 -6.953125q-0.5 0 -0.859375 -0.34375q-0.359375 -0.359375 -0.359375 -0.875q0 -0.5 0.359375 -0.84375q0.359375 -0.34375 0.859375 -0.34375q0.515625 0 0.859375 0.34375q0.359375 0.34375 0.359375 0.84375q0 0.515625 -0.359375 0.875q-0.34375 0.34375 -0.859375 0.34375zm-1.734375 11.703125q-0.640625 0 -1.046875 -0.125q-0.421875 -0.109375 -0.875 -0.421875l0.546875 -1.515625q0.46875 0.390625 1.046875 0.390625q0.46875 0 0.765625 -0.3125q0.296875 -0.296875 0.296875 -0.953125l0 -7.9375l2.03125 0l0 7.9375q0 1.328125 -0.6875 2.125q-0.671875 0.8125 -2.078125 0.8125zm8.40741 -2.953125q-1.828125 0 -2.984375 -1.125q-1.140625 -1.125 -1.140625 -2.9375q0 -1.71875 1.140625 -2.875q1.140625 -1.171875 2.859375 -1.171875q1.703125 0 2.78125 1.1875q1.09375 1.171875 1.09375 3.078125l0 0.4375l-5.75 0q0.09375 0.734375 0.65625 1.265625q0.578125 0.53125 1.5625 0.53125q0.484375 0 1.078125 -0.203125q0.59375 -0.203125 0.984375 -0.5625l0.90625 1.3125q-0.578125 0.515625 -1.4375 0.796875q-0.84375 0.265625 -1.75 0.265625zm1.78125 -4.78125q-0.046875 -0.765625 -0.578125 -1.234375q-0.53125 -0.46875 -1.328125 -0.46875q-0.796875 0 -1.3125 0.484375q-0.515625 0.484375 -0.59375 1.21875l3.8125 0zm7.0355225 4.78125q-1.828125 0 -2.96875 -1.140625q-1.125 -1.15625 -1.125 -2.921875q0 -1.734375 1.125 -2.890625q1.140625 -1.15625 2.96875 -1.15625q1.1875 0 1.921875 0.4375q0.75 0.421875 1.125 0.953125l-1.3125 1.25q-0.5625 -0.828125 -1.640625 -0.828125q-0.921875 0 -1.515625 0.625q-0.578125 0.609375 -0.578125 1.609375q0 1.015625 0.578125 1.640625q0.59375 0.625 1.515625 0.625q1.046875 0 1.640625 -0.84375l1.3125 1.234375q-0.375 0.546875 -1.125 0.984375q-0.734375 0.421875 -1.921875 0.421875zm6.968384 0q-2.1875 0 -2.1875 -2.109375l0 -4.03125l-1.28125 0l0 -1.78125l1.28125 0l0 -2.109375l2.046875 0l0 2.109375l1.578125 0l0 1.78125l-1.578125 0l0 3.484375q0 0.375 0.1875 0.625q0.1875 0.234375 0.515625 0.234375q0.484375 0 0.703125 -0.234375l0.4375 1.546875q-0.53125 0.484375 -1.703125 0.484375zm3.829834 -8.75q-0.5 0 -0.859375 -0.34375q-0.359375 -0.359375 -0.359375 -0.875q0 -0.5 0.359375 -0.84375q0.359375 -0.34375 0.859375 -0.34375q0.515625 0 0.859375 0.34375q0.359375 0.34375 0.359375 0.84375q0 0.515625 -0.359375 0.875q-0.34375 0.34375 -0.859375 0.34375zm-1.0 8.5625l0 -7.734375l2.03125 0l0 7.734375l-2.03125 0zm7.6261597 0.1875q-1.796875 0 -2.9375 -1.140625q-1.140625 -1.15625 -1.140625 -2.921875q0 -1.75 1.140625 -2.890625q1.140625 -1.15625 2.9375 -1.15625q1.796875 0 2.9375 1.15625q1.15625 1.140625 1.15625 2.890625q0 1.78125 -1.15625 2.921875q-1.140625 1.140625 -2.9375 1.140625zm0 -1.796875q0.875 0 1.421875 -0.625q0.5625 -0.640625 0.5625 -1.640625q0 -0.953125 -0.5625 -1.59375q-0.546875 -0.640625 -1.421875 -0.640625q-0.84375 0 -1.40625 0.625q-0.5625 0.609375 -0.5625 1.609375q0 1.03125 0.5625 1.65625q0.5625 0.609375 1.40625 0.609375zm10.809021 1.609375l0 -4.671875q0 -1.4375 -1.421875 -1.4375q-1.09375 0 -1.75 0.90625l0 5.203125l-2.03125 0l0 -7.734375l2.03125 0l0 1.015625q0.359375 -0.453125 1.046875 -0.828125q0.6875 -0.375 1.65625 -0.375q1.28125 0 1.890625 0.671875q0.609375 0.65625 0.609375 1.796875l0 5.453125l-2.03125 0z" fill-rule="nonzero"></path><path fill="#000000" fill-opacity="0.0" d="m65.39895 400.95538l189.85828 0l0 40.53543l-189.85828 0z" fill-rule="evenodd"></path><path fill="#000000" d="m75.46145 425.31537l0 -10.671875l5.609375 0q1.390625 0 2.234375 0.75q0.84375 0.75 0.84375 1.96875q0 0.96875 -0.53125 1.640625q-0.515625 0.65625 -1.3125 0.8125q0.828125 0.125 1.4375 0.859375q0.609375 0.734375 0.609375 1.765625q0 1.28125 -0.84375 2.078125q-0.828125 0.796875 -2.265625 0.796875l-5.78125 0zm5.109375 -6.40625q0.578125 0 0.90625 -0.3125q0.34375 -0.328125 0.34375 -0.828125q0 -0.515625 -0.34375 -0.84375q-0.328125 -0.328125 -0.90625 -0.328125l-2.84375 0l0 2.3125l2.84375 0zm0.078125 4.4375q0.65625 0 1.015625 -0.328125q0.359375 -0.328125 0.359375 -0.90625q0 -0.515625 -0.359375 -0.875q-0.34375 -0.375 -1.015625 -0.375l-2.921875 0l0 2.484375l2.921875 0zm9.998642 1.96875l0 -0.796875q-0.84375 0.984375 -2.4375 0.984375q-1.125 0 -1.90625 -0.703125q-0.78125 -0.71875 -0.78125 -1.859375q0 -1.125 0.734375 -1.796875q0.75 -0.6875 1.953125 -0.6875q1.65625 0 2.4375 0.9375l0 -1.03125q0 -0.59375 -0.46875 -0.9375q-0.453125 -0.359375 -1.21875 -0.359375q-1.28125 0 -2.25 0.90625l-0.78125 -1.359375q1.421875 -1.21875 3.375 -1.21875q1.640625 0 2.515625 0.765625q0.875 0.75 0.875 2.171875l0 4.984375l-2.046875 0zm-1.625 -1.1875q1.125 0 1.625 -0.671875l0 -0.953125q-0.5 -0.671875 -1.625 -0.671875q-0.609375 0 -1.03125 0.3125q-0.421875 0.296875 -0.421875 0.859375q0 0.53125 0.421875 0.828125q0.421875 0.296875 1.03125 0.296875zm9.281769 1.375q-1.828125 0 -2.96875 -1.140625q-1.125 -1.15625 -1.125 -2.921875q0 -1.734375 1.125 -2.890625q1.140625 -1.15625 2.96875 -1.15625q1.1875 0 1.921875 0.4375q0.75 0.421875 1.125 0.953125l-1.3125 1.25q-0.5625 -0.828125 -1.640625 -0.828125q-0.921875 0 -1.515625 0.625q-0.578125 0.609375 -0.578125 1.609375q0 1.015625 0.578125 1.640625q0.59375 0.625 1.515625 0.625q1.046875 0 1.640625 -0.84375l1.3125 1.234375q-0.375 0.546875 -1.125 0.984375q-0.734375 0.421875 -1.921875 0.421875zm9.390259 -0.1875l-2.046875 -2.96875l-0.921875 0.984375l0 1.984375l-2.03125 0l0 -10.671875l2.03125 0l0 6.390625l2.921875 -3.453125l2.5 0l-3.0625 3.515625l3.15625 4.21875l-2.546875 0zm10.341263 0l-1.640625 -5.265625l-1.625 5.265625l-2.171875 0l-2.359375 -7.734375l2.109375 0l1.4375 5.203125l1.703125 -5.203125l1.8125 0l1.6875 5.203125l1.4375 -5.203125l2.109375 0l-2.34375 7.734375l-2.15625 0zm10.147789 0l0 -0.796875q-0.8437576 0.984375 -2.4375076 0.984375q-1.125 0 -1.90625 -0.703125q-0.78125 -0.71875 -0.78125 -1.859375q0 -1.125 0.734375 -1.796875q0.75 -0.6875 1.953125 -0.6875q1.65625 0 2.4375076 0.9375l0 -1.03125q0 -0.59375 -0.46875763 -0.9375q-0.453125 -0.359375 -1.21875 -0.359375q-1.28125 0 -2.25 0.90625l-0.78125 -1.359375q1.421875 -1.21875 3.375 -1.21875q1.6406326 0 2.5156326 0.765625q0.875 0.75 0.875 2.171875l0 4.984375l-2.046875 0zm-1.6250076 -1.1875q1.125 0 1.6250076 -0.671875l0 -0.953125q-0.5000076 -0.671875 -1.6250076 -0.671875q-0.609375 0 -1.03125 0.3125q-0.421875 0.296875 -0.421875 0.859375q0 0.53125 0.421875 0.828125q0.421875 0.296875 1.03125 0.296875zm5.6880264 1.1875l0 -7.734375l2.03125 0l0 1.0625q0.40625 -0.515625 1.0625 -0.875q0.671875 -0.375 1.390625 -0.375l0 1.984375l-0.5625 -0.046875q-0.53125 0 -1.09375 0.265625q-0.546875 0.25 -0.796875 0.609375l0 5.109375l-2.03125 0zm11.056885 0l0 -0.984375q-0.953125 1.171875 -2.375 1.171875q-1.53125 0 -2.484375 -1.09375q-0.9375 -1.109375 -0.9375 -2.953125q0 -1.828125 0.9375 -2.9375q0.953125 -1.125 2.484375 -1.125q1.453125 0 2.375 1.1875l0 -3.9375l2.0625 0l0 10.671875l-2.0625 0zm-1.75 -1.609375q0.515625 0 1.0 -0.25q0.5 -0.25 0.75 -0.640625l0 -2.734375q-0.25 -0.375 -0.75 -0.625q-0.484375 -0.25 -1.0 -0.25q-0.859375 0 -1.40625 0.625q-0.546875 0.625 -0.546875 1.625q0 0.984375 0.515625 1.625q0.53125 0.625 1.4375 0.625zm14.331406 1.796875q-1.484375 0 -2.375 -1.171875l0 3.921875l-2.03125 0l0 -10.671875l2.03125 0l0 0.984375q0.921875 -1.171875 2.375 -1.171875q1.53125 0 2.46875 1.078125q0.953125 1.078125 0.953125 2.96875q0 1.859375 -0.9375 2.96875q-0.9375 1.09375 -2.484375 1.09375zm-0.640625 -1.796875q0.875 0 1.40625 -0.625q0.546875 -0.625 0.546875 -1.640625q0 -1.0 -0.546875 -1.609375q-0.53125 -0.625 -1.40625 -0.625q-0.5 0 -1.0 0.265625q-0.484375 0.25 -0.734375 0.609375l0 2.734375q0.25 0.375 0.734375 0.640625q0.5 0.25 1.0 0.25zm5.562393 1.609375l0 -7.734375l2.03125 0l0 1.0625q0.40625 -0.515625 1.0625 -0.875q0.671875 -0.375 1.390625 -0.375l0 1.984375l-0.5625 -0.046875q-0.53125 0 -1.09375 0.265625q-0.546875 0.25 -0.796875 0.609375l0 5.109375l-2.03125 0zm9.338135 0.1875q-1.796875 0 -2.9375 -1.140625q-1.140625 -1.15625 -1.140625 -2.921875q0 -1.75 1.140625 -2.890625q1.140625 -1.15625 2.9375 -1.15625q1.796875 0 2.9375 1.15625q1.15625 1.140625 1.15625 2.890625q0 1.78125 -1.15625 2.921875q-1.140625 1.140625 -2.9375 1.140625zm0 -1.796875q0.875 0 1.421875 -0.625q0.5625 -0.640625 0.5625 -1.640625q0 -0.953125 -0.5625 -1.59375q-0.546875 -0.640625 -1.421875 -0.640625q-0.84375 0 -1.40625 0.625q-0.5625 0.609375 -0.5625 1.609375q0 1.03125 0.5625 1.65625q0.5625 0.609375 1.40625 0.609375zm6.605896 -6.953125q-0.5 0 -0.859375 -0.34375q-0.359375 -0.359375 -0.359375 -0.875q0 -0.5 0.359375 -0.84375q0.359375 -0.34375 0.859375 -0.34375q0.515625 0 0.859375 0.34375q0.359375 0.34375 0.359375 0.84375q0 0.515625 -0.359375 0.875q-0.34375 0.34375 -0.859375 0.34375zm-1.734375 11.703125q-0.640625 0 -1.046875 -0.125q-0.421875 -0.109375 -0.875 -0.421875l0.546875 -1.515625q0.46875 0.390625 1.046875 0.390625q0.46875 0 0.765625 -0.3125q0.296875 -0.296875 0.296875 -0.953125l0 -7.9375l2.03125 0l0 7.9375q0 1.328125 -0.6875 2.125q-0.671875 0.8125 -2.078125 0.8125zm8.407379 -2.953125q-1.828125 0 -2.984375 -1.125q-1.140625 -1.125 -1.140625 -2.9375q0 -1.71875 1.140625 -2.875q1.140625 -1.171875 2.859375 -1.171875q1.703125 0 2.78125 1.1875q1.09375 1.171875 1.09375 3.078125l0 0.4375l-5.75 0q0.09375 0.734375 0.65625 1.265625q0.578125 0.53125 1.5625 0.53125q0.484375 0 1.078125 -0.203125q0.59375 -0.203125 0.984375 -0.5625l0.90625 1.3125q-0.578125 0.515625 -1.4375 0.796875q-0.84375 0.265625 -1.75 0.265625zm1.78125 -4.78125q-0.046875 -0.765625 -0.578125 -1.234375q-0.53125 -0.46875 -1.328125 -0.46875q-0.796875 0 -1.3125 0.484375q-0.515625 0.484375 -0.59375 1.21875l3.8125 0zm7.0355225 4.78125q-1.828125 0 -2.96875 -1.140625q-1.125 -1.15625 -1.125 -2.921875q0 -1.734375 1.125 -2.890625q1.140625 -1.15625 2.96875 -1.15625q1.1875 0 1.921875 0.4375q0.75 0.421875 1.125 0.953125l-1.3125 1.25q-0.5625 -0.828125 -1.640625 -0.828125q-0.921875 0 -1.515625 0.625q-0.578125 0.609375 -0.578125 1.609375q0 1.015625 0.578125 1.640625q0.59375 0.625 1.515625 0.625q1.046875 0 1.640625 -0.84375l1.3125 1.234375q-0.375 0.546875 -1.125 0.984375q-0.734375 0.421875 -1.921875 0.421875zm6.968384 0q-2.1875 0 -2.1875 -2.109375l0 -4.03125l-1.28125 0l0 -1.78125l1.28125 0l0 -2.109375l2.046875 0l0 2.109375l1.578125 0l0 1.78125l-1.578125 0l0 3.484375q0 0.375 0.1875 0.625q0.1875 0.234375 0.515625 0.234375q0.484375 0 0.703125 -0.234375l0.4375 1.546875q-0.53125 0.484375 -1.703125 0.484375zm3.8298798 -8.75q-0.5 0 -0.859375 -0.34375q-0.359375 -0.359375 -0.359375 -0.875q0 -0.5 0.359375 -0.84375q0.359375 -0.34375 0.859375 -0.34375q0.515625 0 0.859375 0.34375q0.359375 0.34375 0.359375 0.84375q0 0.515625 -0.359375 0.875q-0.34375 0.34375 -0.859375 0.34375zm-1.0 8.5625l0 -7.734375l2.03125 0l0 7.734375l-2.03125 0zm7.626129 0.1875q-1.796875 0 -2.9375 -1.140625q-1.140625 -1.15625 -1.140625 -2.921875q0 -1.75 1.140625 -2.890625q1.140625 -1.15625 2.9375 -1.15625q1.796875 0 2.9375 1.15625q1.15625 1.140625 1.15625 2.890625q0 1.78125 -1.15625 2.921875q-1.140625 1.140625 -2.9375 1.140625zm0 -1.796875q0.875 0 1.421875 -0.625q0.5625 -0.640625 0.5625 -1.640625q0 -0.953125 -0.5625 -1.59375q-0.546875 -0.640625 -1.421875 -0.640625q-0.84375 0 -1.40625 0.625q-0.5625 0.609375 -0.5625 1.609375q0 1.03125 0.5625 1.65625q0.5625 0.609375 1.40625 0.609375zm10.809021 1.609375l0 -4.671875q0 -1.4375 -1.421875 -1.4375q-1.09375 0 -1.75 0.90625l0 5.203125l-2.03125 0l0 -7.734375l2.03125 0l0 1.015625q0.359375 -0.453125 1.046875 -0.828125q0.6875 -0.375 1.65625 -0.375q1.28125 0 1.890625 0.671875q0.609375 0.65625 0.609375 1.796875l0 5.453125l-2.03125 0z" fill-rule="nonzero"></path><path fill="#000000" fill-opacity="0.0" d="m550.11285 306.33597l43.24408 0l0 41.88974l-43.24408 0z" fill-rule="evenodd"></path><path fill="#000000" d="m565.7691 328.64783l2.3125 0.375q-0.5625 1.546875 -1.6875 2.359375q-1.125 0.796875 -2.59375 0.796875q-1.6875 0 -2.6875 -1.0q-0.984375 -1.0 -0.984375 -2.765625q0 -1.4375 0.59375 -2.703125q0.609375 -1.28125 1.8125 -2.015625q1.203125 -0.734375 2.640625 -0.734375q1.5625 0 2.484375 0.8125q0.9375 0.8125 1.046875 2.140625l-2.265625 0.234375q-0.078125 -0.734375 -0.453125 -1.078125q-0.359375 -0.359375 -0.96875 -0.359375q-0.6875 0 -1.28125 0.515625q-0.59375 0.515625 -0.921875 1.546875q-0.3125 1.015625 -0.3125 1.921875q0 0.78125 0.375 1.203125q0.390625 0.421875 0.953125 0.421875q0.578125 0 1.109375 -0.40625q0.53125 -0.421875 0.828125 -1.265625z" fill-rule="nonzero"></path><path fill="#000000" d="m570.1718 333.53845l0.3125 -1.5q2.1875 -0.953125 3.375 -2.203125l1.015625 0l-1.8125 8.640625l-1.6875 0l1.25 -5.953125q-0.53125 0.34375 -1.21875 0.625q-0.6875 0.28125 -1.234375 0.390625z" fill-rule="nonzero"></path><path fill="#000000" fill-opacity="0.0" d="m574.11285 154.33595l40.53546 0l0 41.88977l-40.53546 0z" fill-rule="evenodd"></path><path fill="#000000" d="m589.7691 176.64783l2.3125 0.375q-0.5625 1.546875 -1.6875 2.359375q-1.125 0.796875 -2.59375 0.796875q-1.6875 0 -2.6875 -1.0q-0.984375 -1.0 -0.984375 -2.765625q0 -1.4375 0.59375 -2.703125q0.609375 -1.28125 1.8125 -2.015625q1.203125 -0.734375 2.640625 -0.734375q1.5625 0 2.484375 0.8125q0.9375 0.8125 1.046875 2.140625l-2.265625 0.234375q-0.078125 -0.734375 -0.453125 -1.078125q-0.359375 -0.359375 -0.96875 -0.359375q-0.6875 0 -1.28125 0.515625q-0.59375 0.515625 -0.921875 1.546875q-0.3125 1.015625 -0.3125 1.921875q0 0.78125 0.375 1.203125q0.390625 0.421875 0.953125 0.421875q0.578125 0 1.109375 -0.40625q0.53125 -0.421875 0.828125 -1.265625z" fill-rule="nonzero"></path><path fill="#000000" d="m595.9218 180.5697l-1.640625 -0.25q0.1875 -1.203125 0.921875 -1.828125q0.734375 -0.640625 1.828125 -0.640625q1.203125 0 1.875 0.65625q0.6875 0.640625 0.6875 1.640625q0 0.515625 -0.21875 1.03125q-0.203125 0.515625 -0.671875 1.078125q-0.34375 0.390625 -1.140625 1.125q-0.78125 0.71875 -1.046875 1.0q-0.25 0.265625 -0.484375 0.5625l2.984375 0l-0.3125 1.53125l-5.21875 0q0.078125 -0.640625 0.359375 -1.203125q0.296875 -0.578125 0.71875 -1.0625q0.4375 -0.5 1.59375 -1.59375q0.875 -0.828125 1.09375 -1.078125q0.421875 -0.453125 0.5625 -0.78125q0.15625 -0.34375 0.15625 -0.609375q0 -0.4375 -0.25 -0.703125q-0.25 -0.28125 -0.65625 -0.28125q-0.390625 0 -0.6875 0.3125q-0.296875 0.296875 -0.453125 1.09375z" fill-rule="nonzero"></path><path fill="#000000" fill-opacity="0.0" d="m542.11285 106.33596l36.75592 0l0 41.889763l-36.75592 0z" fill-rule="evenodd"></path><path fill="#000000" d="m557.7691 128.64783l2.3125 0.375q-0.5625 1.546875 -1.6875 2.359375q-1.125 0.796875 -2.59375 0.796875q-1.6875 0 -2.6875 -1.0q-0.984375 -1.0 -0.984375 -2.765625q0 -1.4374924 0.59375 -2.7031174q0.609375 -1.28125 1.8125 -2.015625q1.203125 -0.734375 2.640625 -0.734375q1.5625 0 2.484375 0.8125q0.9375 0.8125 1.046875 2.140625l-2.265625 0.234375q-0.078125 -0.734375 -0.453125 -1.078125q-0.359375 -0.359375 -0.96875 -0.359375q-0.6875 0 -1.28125 0.515625q-0.59375 0.515625 -0.921875 1.546875q-0.3125 1.015625 -0.3125 1.9218674q0 0.78125 0.375 1.203125q0.390625 0.421875 0.953125 0.421875q0.578125 0 1.109375 -0.40625q0.53125 -0.421875 0.828125 -1.265625z" fill-rule="nonzero"></path><path fill="#000000" d="m561.3593 136.22595l1.609375 -0.1875q0.109375 0.6875 0.359375 0.953125q0.265625 0.265625 0.703125 0.265625q0.5625 0 0.9375 -0.390625q0.390625 -0.390625 0.390625 -1.0q0 -0.515625 -0.3125 -0.828125q-0.296875 -0.3125 -0.8125 -0.3125q-0.125 0 -0.265625 0.03125l0.28125 -1.40625q0.09375 0.015625 0.171875 0.015625q0.671875 0 1.015625 -0.34375q0.359375 -0.34375 0.359375 -0.921875q0 -0.421875 -0.234375 -0.65625q-0.234375 -0.25 -0.625 -0.25q-0.359375 0 -0.65625 0.265625q-0.28125 0.265625 -0.453125 0.921875l-1.53125 -0.3125q0.296875 -0.953125 0.8125 -1.453125q0.796875 -0.765625 1.953125 -0.765625q1.171875 0 1.78125 0.65625q0.625 0.65625 0.625 1.578125q0 0.671875 -0.390625 1.21875q-0.390625 0.53125 -1.078125 0.78125q0.546875 0.28125 0.796875 0.75q0.265625 0.453125 0.265625 0.953125q0 0.953125 -0.671875 1.75q-0.921875 1.078125 -2.375 1.078125q-1.09375 0 -1.796875 -0.625q-0.703125 -0.625 -0.859375 -1.765625z" fill-rule="nonzero"></path><path fill="#000000" fill-opacity="0.0" d="m484.7736 153.24414l0 0c0 -1.3771057 1.116394 -2.4934845 2.4934998 -2.4934845l9.973663 0l0 0c0.6613159 0 1.2955322 0.26271057 1.7631531 0.7303314c0.46762085 0.46762085 0.73031616 1.1018372 0.73031616 1.7631531l0 216.9028c0 1.3771057 -1.1163635 2.4934692 -2.4934692 2.4934692l-9.973663 0c-1.3771057 0 -2.4934998 -1.1163635 -2.4934998 -2.4934692z" fill-rule="evenodd"></path><path stroke="#000000" stroke-width="2.0" stroke-linejoin="round" stroke-linecap="butt" d="m484.7736 153.24414l0 0c0 -1.3771057 1.116394 -2.4934845 2.4934998 -2.4934845l9.973663 0l0 0c0.6613159 0 1.2955322 0.26271057 1.7631531 0.7303314c0.46762085 0.46762085 0.73031616 1.1018372 0.73031616 1.7631531l0 216.9028c0 1.3771057 -1.1163635 2.4934692 -2.4934692 2.4934692l-9.973663 0c-1.3771057 0 -2.4934998 -1.1163635 -2.4934998 -2.4934692z" fill-rule="evenodd"></path></g></svg>

